<svg width="26" height="26" viewBox="0 0 26 26" fill="none" xmlns="http://www.w3.org/2000/svg">
<path d="M0.911987 21.7481C0.911987 15.6002 0.911987 9.4523 0.911987 3.3044C0.930285 3.24341 0.948582 3.18242 0.96078 3.12143C1.18645 1.87721 1.85125 0.962343 2.98568 0.413423C3.35773 0.23045 3.77857 0.157261 4.18111 0.0352783C10.329 0.0352783 16.4769 0.0352783 22.6248 0.0352783C22.6614 0.0474765 22.698 0.071873 22.7407 0.0779721C24.6436 0.395126 25.8939 1.86501 25.8939 3.79843C25.8939 9.62308 25.8939 15.4416 25.8939 21.2663C25.8939 21.5468 25.8695 21.8396 25.8086 22.1141C25.4304 23.8462 23.9849 25.0172 22.204 25.0233C20.3194 25.0294 18.4286 25.0233 16.544 25.0233C16.483 25.0233 16.4159 25.0233 16.3488 25.0233C16.3488 22.0714 16.3488 19.1377 16.3488 16.1857C17.587 16.1857 18.8129 16.1857 20.0449 16.1857C20.2889 14.7158 20.5328 13.2703 20.7768 11.7944C19.2886 11.7944 17.8187 11.7944 16.3549 11.7944C16.3549 10.788 16.3549 9.81215 16.3549 8.818C17.8309 8.818 19.2947 8.818 20.7646 8.818C20.7646 7.34811 20.7646 5.90262 20.7646 4.43274C20.6792 4.43274 20.606 4.43274 20.5328 4.43274C19.1666 4.43274 17.8004 4.43274 16.4342 4.43274C13.8726 4.43884 11.9514 6.36005 11.9453 8.92778C11.9453 9.79995 11.9453 10.666 11.9453 11.5382C11.9453 11.6236 11.9453 11.709 11.9453 11.8127C10.9511 11.8127 9.99356 11.8127 9.036 11.8127C9.036 13.2825 9.036 14.728 9.036 16.1979C10.0119 16.1979 10.9633 16.1979 11.9331 16.1979C11.9331 19.1438 11.9331 22.0775 11.9331 25.005C11.8965 25.0111 11.8721 25.0233 11.8477 25.0233C9.36535 25.0233 6.88911 25.0599 4.40678 25.005C3.00398 24.9745 1.95493 24.2487 1.32063 22.9984C1.11936 22.6081 1.04007 22.1628 0.911987 21.7481Z" fill="#0F46BD"/>
</svg>
