<svg width="25" height="26" viewBox="0 0 25 26" fill="none" xmlns="http://www.w3.org/2000/svg">
<path d="M8.71493 0.0352783C11.2011 0.0352783 13.6872 0.0352783 16.1789 0.0352783C16.3248 0.0465256 16.4707 0.0633965 16.611 0.0746437C17.5482 0.158998 18.5023 0.158998 19.417 0.344578C21.847 0.833834 23.5363 2.24537 24.3893 4.60729C24.8046 5.74889 24.9 6.9411 24.9 8.13893C24.9112 11.007 24.9224 13.875 24.8944 16.7375C24.8832 17.6429 24.8214 18.5651 24.6474 19.4537C24.1816 21.8493 22.8123 23.5421 20.5226 24.4362C19.417 24.8692 18.2497 24.9817 17.0768 24.993C14.4448 25.0211 11.8128 25.0436 9.18073 25.0323C7.88435 25.0267 6.57675 25.0211 5.30283 24.7118C3.2376 24.2113 1.69991 23.0359 0.790765 21.0958C0.229563 19.9036 0.0555909 18.6214 0.0443669 17.3167C0.0163068 14.6117 -0.0117533 11.9068 0.00508277 9.20742C0.0163068 8.07145 0.083651 6.92423 0.246399 5.80512C0.504552 4.05617 1.34635 2.59965 2.77742 1.52554C3.99523 0.608889 5.41507 0.243353 6.91348 0.136504C7.51396 0.0915146 8.11445 0.0690201 8.71493 0.0352783ZM12.475 22.8447C12.475 22.8335 12.475 22.8166 12.475 22.8054C13.1316 22.8054 13.7938 22.8222 14.4504 22.7997C15.8646 22.7491 17.2845 22.7604 18.6819 22.5917C20.5282 22.3667 21.7909 21.3207 22.3465 19.5043C22.6047 18.672 22.644 17.806 22.6552 16.9455C22.6832 14.7298 22.7113 12.5141 22.6945 10.2984C22.6832 8.98248 22.6496 7.6553 22.498 6.35062C22.268 4.34298 20.994 2.97644 19.0186 2.58278C18.1543 2.40845 17.262 2.35784 16.3809 2.34659C14.2035 2.30723 12.026 2.31847 9.84856 2.3241C8.59708 2.32972 7.3456 2.31285 6.10534 2.53217C4.20848 2.86397 2.91211 4.06742 2.52488 5.95134C2.35652 6.76677 2.3004 7.61593 2.28356 8.44823C2.23867 10.4615 2.22744 12.4691 2.24989 14.4824C2.26673 15.8883 2.30601 17.2998 2.43509 18.7001C2.55855 19.9992 3.14781 21.0958 4.25338 21.855C5.10641 22.4398 6.07728 22.6648 7.08745 22.7041C8.88329 22.7716 10.6791 22.7997 12.475 22.8447Z" fill="#0F46BD"/>
<path d="M6.04923 12.5535C6.038 9.01623 8.92258 6.12006 12.4638 6.12006C15.9993 6.12006 18.8502 8.96562 18.8783 12.5254C18.9007 16.0626 16.0274 18.9588 12.4806 18.9701C8.94503 18.9869 6.06045 16.1076 6.04923 12.5535ZM12.4525 16.7094C14.7535 16.715 16.611 14.8704 16.6223 12.5647C16.6335 10.2591 14.7927 8.39201 12.4918 8.38076C10.1797 8.36952 8.31648 10.2197 8.31087 12.5366C8.30526 14.8479 10.1516 16.7037 12.4525 16.7094Z" fill="#0F46BD"/>
<path d="M19.1644 4.3711C20.0006 4.38797 20.646 5.0628 20.6235 5.91197C20.6011 6.73864 19.9277 7.37974 19.0971 7.36287C18.2721 7.35162 17.6155 6.65429 17.6379 5.81637C17.6548 5.00094 18.3395 4.35423 19.1644 4.3711Z" fill="#0F46BD"/>
</svg>
