<svg width="26" height="26" viewBox="0 0 26 26" fill="none" xmlns="http://www.w3.org/2000/svg">
<path d="M0.911987 22.8907C0.911987 15.985 0.911987 9.08552 0.911987 2.18601C0.924242 2.14925 0.948752 2.11861 0.954879 2.07572C1.07743 1.48136 1.37767 0.997288 1.84336 0.605131C2.19875 0.304886 2.62155 0.157827 3.06272 0.0352783C9.96223 0.0352783 16.8617 0.0352783 23.7674 0.0352783C23.798 0.0475332 23.8225 0.072043 23.8532 0.0781705C25.1032 0.341651 25.912 1.3343 25.912 2.61494C25.912 9.23258 25.912 15.8441 25.912 22.4617C25.912 22.6885 25.8875 22.9213 25.8323 23.1358C25.5443 24.2877 24.5456 25.0353 23.3139 25.0353C16.7147 25.0353 10.1154 25.0353 3.51615 25.0353C3.44262 25.0353 3.3691 25.0353 3.29557 25.0292C2.59704 24.9863 2.01493 24.6921 1.54311 24.1774C1.2061 23.8098 1.04066 23.3625 0.911987 22.8907ZM22.1497 21.273C22.1559 21.1995 22.1559 21.1505 22.1559 21.1015C22.1559 18.7914 22.1681 16.4814 22.1497 14.1713C22.1375 12.6456 21.4757 11.4385 20.238 10.5745C18.9022 9.64312 17.2416 9.45317 15.7649 10.4642C15.3728 10.7338 15.0358 11.0892 14.6681 11.4078C14.6681 10.9789 14.6681 10.5255 14.6681 10.0537C13.4059 10.0537 12.1742 10.0537 10.9365 10.0537C10.9365 13.8037 10.9365 17.5353 10.9365 21.2669C12.1865 21.2669 13.412 21.2669 14.662 21.2669C14.662 21.1566 14.662 21.0647 14.662 20.9667C14.662 18.9507 14.662 16.9287 14.662 14.9127C14.662 14.7473 14.6681 14.588 14.6804 14.4225C14.7845 13.338 15.9916 12.5414 17.0272 12.8662C17.8973 13.1358 18.3997 13.8466 18.3997 14.8024C18.3997 16.8613 18.3997 18.9201 18.3997 20.9789C18.3997 21.0708 18.3997 21.1689 18.3997 21.273C19.6742 21.273 20.8997 21.273 22.1497 21.273ZM8.39973 21.273C8.39973 17.5169 8.39973 13.7853 8.39973 10.0598C7.14973 10.0598 5.91811 10.0598 4.6865 10.0598C4.6865 13.8098 4.6865 17.5353 4.6865 21.273C5.92424 21.273 7.14973 21.273 8.39973 21.273ZM8.77963 5.66028C8.77963 4.41641 7.76248 3.39925 6.53086 3.4115C5.29924 3.42376 4.3066 4.41641 4.28821 5.64802C4.26983 6.87964 5.28699 7.8968 6.53086 7.90293C7.77473 7.90905 8.77963 6.90415 8.77963 5.66028Z" fill="#0F46BD"/>
</svg>
