<svg width="19" height="21" viewBox="0 0 19 21" fill="none" xmlns="http://www.w3.org/2000/svg">
<path d="M4.02289 20.512C3.87336 20.39 3.70809 20.2798 3.5743 20.146C2.68104 19.2646 1.79566 18.3792 0.906342 17.4938C0.544319 17.1318 0.544319 16.8327 0.910277 16.4668C2.01209 15.361 3.12177 14.2632 4.21964 13.1535C4.85318 12.5121 5.60871 12.2012 6.51377 12.2051C8.48915 12.213 10.4606 12.2051 12.436 12.2091C12.8256 12.2091 13.0695 12.4373 13.0341 12.7718C13.0223 12.8662 12.983 12.9607 12.9397 13.0472C12.7508 13.4211 12.5501 13.787 12.3612 14.1648C12.2196 14.4481 12.0031 14.574 11.6844 14.574C10.3976 14.5662 9.11482 14.5701 7.82807 14.574C7.38341 14.574 7.10009 14.9282 7.2142 15.3256C7.28503 15.5696 7.49752 15.7467 7.76904 15.7467C9.13843 15.7506 10.5118 15.7664 11.8812 15.7388C12.5737 15.727 13.0735 15.3453 13.3922 14.7354C13.8802 13.8028 14.3642 12.8623 14.8639 11.9336C15.0646 11.5598 15.2653 11.1781 15.525 10.8476C16.0523 10.1825 16.7763 9.8756 17.6184 9.85199C18.1024 9.84019 18.37 10.3085 18.1418 10.7531C17.7876 11.4457 17.4177 12.1343 17.0557 12.8229C16.5324 13.8185 16.0169 14.8219 15.4856 15.8136C14.675 17.3207 13.404 18.092 11.6923 18.1077C10.1379 18.1234 8.58359 18.1116 7.02926 18.1077C6.89153 18.1077 6.80102 18.147 6.70265 18.2415C6.06911 18.879 5.43163 19.5125 4.79416 20.1421C4.65643 20.2759 4.49509 20.3861 4.34163 20.5081C4.23145 20.512 4.1252 20.512 4.02289 20.512Z" fill="#0F46BD"/>
<path d="M9.72869 0.364624C10.012 0.47874 10.3229 0.545636 10.5708 0.710907C11.0784 1.04932 11.3066 1.56481 11.3106 2.17474C11.3106 2.35182 11.3106 2.52496 11.3106 2.72564C11.6569 2.72564 11.9795 2.72564 12.3061 2.72564C12.5422 2.72564 12.7783 2.72564 13.0144 2.72564C13.4394 2.72958 13.6716 2.95388 13.6716 3.3828C13.6755 4.96861 13.6716 6.55837 13.6716 8.14419C13.6716 8.87217 13.6716 9.60015 13.6716 10.3281C13.6716 10.8082 13.4552 11.0286 12.979 11.0286C10.6888 11.0286 8.40258 11.0286 6.11239 11.0286C5.63625 11.0286 5.40802 10.8043 5.40802 10.3321C5.40802 8.03007 5.40802 5.72808 5.40802 3.42608C5.40802 2.95388 5.63232 2.72564 6.10452 2.72564C6.64756 2.72564 7.19059 2.72564 7.74937 2.72564C7.76511 2.45806 7.76904 2.19835 7.79265 1.94257C7.86348 1.17524 8.46554 0.529895 9.22107 0.400039C9.25648 0.392169 9.29583 0.376429 9.33125 0.364624C9.46504 0.364624 9.5949 0.364624 9.72869 0.364624ZM10.1261 2.71777C10.1261 2.50135 10.134 2.3046 10.1261 2.10784C10.1143 1.80485 9.88609 1.57661 9.59096 1.54907C9.2919 1.52152 9.01251 1.72615 8.97316 2.02914C8.94562 2.25344 8.96923 2.48167 8.96923 2.71777C9.35092 2.71777 9.72869 2.71777 10.1261 2.71777Z" fill="#0F46BD"/>
</svg>
