<svg width="21" height="15" viewBox="0 0 21 15" fill="none" xmlns="http://www.w3.org/2000/svg">
<path d="M13.1493 0.54582C12.7919 0.903221 12.4757 1.23313 12.1458 1.53555C12.0771 1.5974 11.9465 1.60428 11.8434 1.60428C8.78489 1.61115 5.73323 1.60428 2.6747 1.60428C2.18671 1.60428 2.17297 1.61802 2.17297 2.11976C2.17297 4.82776 2.17297 7.54264 2.17297 10.2506C2.17297 10.6905 2.20733 10.7318 2.64034 10.7318C7.87764 10.7318 13.1149 10.7318 18.3522 10.7318C18.7784 10.7318 18.8196 10.6905 18.8196 10.2506C18.8196 7.52202 18.8196 4.7934 18.8196 2.06478C18.8196 1.63864 18.7852 1.5974 18.366 1.5974C17.6443 1.5974 16.9226 1.5974 16.201 1.5974C16.1185 1.5974 16.0429 1.59053 15.9467 1.58366C16.1941 1.17815 16.201 1.17815 15.8573 0.848237C15.7611 0.758886 15.6511 0.683282 15.548 0.600805C15.5686 0.580186 15.5824 0.552693 15.603 0.532074C16.8402 0.532074 18.0773 0.532074 19.3351 0.532074C19.3351 4.45661 19.3351 8.37428 19.3351 12.3194C13.4517 12.3194 7.5546 12.3194 1.64374 12.3194C1.64374 8.40177 1.64374 4.47723 1.64374 0.538947C5.45144 0.54582 9.26601 0.54582 13.1493 0.54582ZM10.4688 11.8108C10.8056 11.8108 11.1424 11.8108 11.4723 11.8108C11.6647 11.8108 11.8228 11.7696 11.8297 11.5497C11.8365 11.3366 11.6785 11.2747 11.486 11.2816C10.8262 11.2816 10.1595 11.2816 9.49969 11.2816C9.30724 11.2816 9.15604 11.3366 9.15604 11.5565C9.16291 11.7696 9.32099 11.8177 9.51344 11.8177C9.8296 11.8108 10.1526 11.8108 10.4688 11.8108Z" fill="#0F46BD"/>
<path d="M20.9297 12.9174C20.8953 13.2679 20.751 13.5635 20.531 13.8247C20.1324 14.2989 19.6169 14.512 18.9983 14.512C18.0842 14.512 17.1701 14.512 16.256 14.512C11.5135 14.512 6.77796 14.512 2.03552 14.512C1.08016 14.512 0.351611 14.0034 0.104179 13.1648C0.0835598 13.0892 0.0698136 13.0068 0.0491943 12.8968C0.159164 12.8968 0.241641 12.8968 0.324118 12.8968C2.86029 12.8968 5.38959 12.8968 7.92577 12.8899C8.11134 12.8899 8.22131 12.9312 8.29004 13.1099C8.37939 13.3298 8.47562 13.5429 8.6062 13.7353C8.68181 13.8384 8.83302 13.9553 8.94986 13.9553C9.97395 13.969 10.998 13.969 12.0221 13.9553C12.139 13.9553 12.2971 13.8453 12.3658 13.7353C12.5101 13.5222 12.5995 13.2679 12.7301 13.048C12.7713 12.9793 12.8744 12.9037 12.95 12.9037C15.5687 12.8968 18.1873 12.8968 20.806 12.8968C20.8472 12.8968 20.8747 12.9037 20.9297 12.9174Z" fill="#0F46BD"/>
<path d="M14.5721 2.14039C14.4758 2.24348 14.4208 2.30534 14.3659 2.36033C13.706 3.02014 13.0531 3.68684 12.3864 4.33291C12.1871 4.52535 12.1596 4.69718 12.2627 4.95149C13.0394 6.86221 11.651 8.96538 9.58905 9.00662C9.4241 9.00662 9.25227 8.986 9.03921 8.97225C9.10794 8.88977 9.14918 8.83479 9.20416 8.78668C9.76775 8.22308 10.3313 7.65261 10.8949 7.09589C11.0187 6.97218 11.0736 6.84846 11.0462 6.66976C10.9637 6.14053 10.8949 5.60443 10.8193 5.0752C10.7918 4.88276 10.6819 4.77966 10.4894 4.75217C9.9602 4.67656 9.4241 4.59408 8.89487 4.5391C8.76428 4.52535 8.59245 4.58721 8.5031 4.67656C7.88453 5.27452 7.27969 5.8931 6.64737 6.5323C6.53052 6.16802 6.56489 5.83124 6.62675 5.50133C6.96353 3.67309 8.91549 2.60776 10.6406 3.31569C10.9018 3.42566 11.0736 3.38442 11.2592 3.1851C11.5548 2.86206 11.8709 2.55965 12.1871 2.25723C12.2558 2.19537 12.352 2.13351 12.4414 2.13351C13.1287 2.13351 13.816 2.14039 14.5721 2.14039Z" fill="#0F46BD"/>
<path d="M15.4793 1.21251C15.2869 1.5218 15.0532 1.63864 14.7095 1.61802C14.1184 1.58366 13.5205 1.61115 12.8469 1.61115C13.06 1.39809 13.2249 1.23313 13.3899 1.0613C13.438 1.01319 13.493 0.971953 13.5274 0.916968C13.8023 0.470217 14.2422 0.497709 14.682 0.525202C14.737 0.525202 14.792 0.559567 14.8333 0.593933C15.0532 0.806999 15.2731 1.02006 15.4793 1.21251Z" fill="#0F46BD"/>
<path d="M12.1871 12.9105C12.1184 13.0549 12.0703 13.1854 11.9947 13.2885C11.9534 13.3504 11.8572 13.4123 11.7816 13.4123C10.9156 13.4191 10.0564 13.4191 9.19043 13.4123C9.11482 13.4123 9.02547 13.3504 8.97736 13.2885C8.90175 13.1854 8.85364 13.0549 8.78491 12.9105C9.93272 12.9105 11.0393 12.9105 12.1871 12.9105Z" fill="#0F46BD"/>
</svg>
