<svg width="16" height="17" viewBox="0 0 16 17" fill="none" xmlns="http://www.w3.org/2000/svg">
<path d="M8.95929 0.617466C7.19991 2.43904 6.81783 4.46942 8.03961 6.70863C8.56387 7.66828 9.40357 8.33915 10.4343 8.73457C11.4606 9.12554 12.5047 9.12998 13.571 8.84564C13.5976 9.12554 13.6198 9.39655 13.6554 9.66313C13.6643 9.72977 13.7131 9.82307 13.7709 9.85417C14.4418 10.214 14.7705 10.7827 14.8016 11.5247C14.815 11.8312 14.7883 12.1511 14.7261 12.4488C14.5617 13.2307 13.9886 13.7195 13.1756 13.8039C12.9845 13.8261 12.789 13.8394 12.5935 13.8394C9.45244 13.8394 6.3069 13.8439 3.1658 13.8394C2.8859 13.8394 2.59711 13.8172 2.3261 13.755C1.55304 13.5728 1.07321 13.0219 0.997683 12.2044C0.966583 11.8535 0.971026 11.4936 1.02434 11.147C1.1132 10.5695 1.4553 10.1474 1.97511 9.87638C2.0773 9.82307 2.11728 9.76087 2.12617 9.6498C2.25057 8.36137 2.3883 7.07738 2.5127 5.78895C2.5749 5.16251 2.63266 4.53607 2.88146 3.95405C3.71671 1.96809 5.19174 0.804066 7.34653 0.537494C7.88856 0.470851 8.42614 0.510837 8.95929 0.617466Z" fill="#0F46BD"/>
<path d="M15.8813 4.24729C15.8768 6.32654 14.2196 7.97485 12.1359 7.9704C10.0611 7.96596 8.40839 6.30433 8.41727 4.22507C8.42171 2.1547 10.0789 0.5064 12.1537 0.510843C14.233 0.510843 15.8857 2.16803 15.8813 4.24729ZM11.8783 4.03847C11.7316 3.88297 11.6028 3.7408 11.4651 3.60307C11.2429 3.38981 10.9275 3.38982 10.7187 3.59419C10.501 3.803 10.4965 4.12733 10.7142 4.35392C10.9764 4.62493 11.2429 4.8915 11.5139 5.15363C11.7316 5.36244 12.0338 5.37133 12.247 5.16252C12.7935 4.62493 13.3355 4.0829 13.8731 3.54087C14.0064 3.40759 14.0508 3.23431 14.0019 3.04771C13.8909 2.63897 13.411 2.50569 13.1045 2.80336C12.7002 3.20322 12.3048 3.60752 11.8783 4.03847Z" fill="#0F46BD"/>
<path d="M5.12067 14.9102C6.9689 14.9102 8.79935 14.9102 10.6654 14.9102C10.0656 15.8343 9.26585 16.3985 8.17291 16.4918C6.8445 16.6073 5.73822 15.9498 5.12067 14.9102Z" fill="#0F46BD"/>
</svg>
