<svg width="17" height="17" viewBox="0 0 17 17" fill="none" xmlns="http://www.w3.org/2000/svg">
<path d="M10.3064 16.5007C10.3064 16.0759 10.3106 15.6468 10.3106 15.2219C10.3106 12.4893 10.3106 9.75667 10.3106 7.02405C10.3106 6.60749 10.4814 6.44087 10.8979 6.44087C11.2561 6.44087 11.6144 6.44087 11.9976 6.44087C11.9976 6.37422 11.9976 6.3159 11.9976 6.25342C11.9976 4.5372 12.0018 2.81681 11.9935 1.10059C11.9935 0.813166 12.0893 0.609053 12.3642 0.504913C12.4392 0.504913 12.51 0.504913 12.585 0.504913C12.9141 0.634046 12.9682 0.908975 12.9307 1.22556C13.014 1.22556 13.0682 1.22556 13.1265 1.22556C14.0221 1.22556 14.9177 1.23389 15.8133 1.22139C16.1007 1.21723 16.3048 1.30471 16.4256 1.56714C16.4256 1.65045 16.4256 1.73376 16.4256 1.81707C16.3298 1.93787 16.2424 2.06701 16.1424 2.17948C15.8883 2.4669 15.6258 2.746 15.3634 3.02926C15.6425 3.30835 15.9133 3.57911 16.1799 3.85821C16.2757 3.95818 16.3465 4.07898 16.4256 4.19145C16.4256 4.26643 16.4256 4.33725 16.4256 4.41223C16.3132 4.68299 16.1091 4.77047 15.8175 4.7663C14.9219 4.75381 14.0263 4.76214 13.1348 4.76214C13.0723 4.76214 13.014 4.76214 12.9432 4.76214C12.9432 5.32866 12.9432 5.87851 12.9432 6.42421C12.9599 6.43254 12.9682 6.44087 12.9765 6.44087C13.2973 6.44087 13.6222 6.44503 13.9429 6.44503C14.3887 6.44503 14.547 6.60333 14.547 7.05737C14.547 9.99827 14.5428 12.935 14.5511 15.8759C14.5511 16.1675 14.472 16.3799 14.2054 16.5049C12.9099 16.5007 11.6102 16.5007 10.3064 16.5007Z" fill="#0F46BD"/>
<path d="M5.68262 16.5008C5.68262 14.5346 5.68262 12.5685 5.68262 10.5981C5.68262 10.3024 5.87423 10.1024 6.16999 10.1024C7.07392 10.0983 7.98202 10.0983 8.88595 10.1024C9.17754 10.1024 9.37332 10.2982 9.37332 10.5815C9.37332 12.5518 9.37332 14.5263 9.37332 16.4966C8.14031 16.5008 6.91146 16.5008 5.68262 16.5008Z" fill="#0F46BD"/>
<path d="M0.933814 16.5007C0.663052 16.3883 0.571409 16.1842 0.575574 15.8926C0.588071 15.022 0.57974 14.1555 0.57974 13.2849C0.57974 12.8975 0.754694 12.7226 1.14209 12.7226C2.15016 12.7226 3.1624 12.7226 4.17047 12.7226C4.56204 12.7226 4.74116 12.9017 4.74116 13.2974C4.74116 14.3638 4.74116 15.4302 4.74116 16.4966C3.47482 16.5007 2.20432 16.5007 0.933814 16.5007Z" fill="#0F46BD"/>
<path d="M0.43396 9.78583C0.513106 9.59005 0.671398 9.49008 0.863015 9.40676C3.5998 8.18625 5.67843 6.24925 7.11139 3.62077C7.14055 3.56662 7.16554 3.51247 7.2072 3.42915C6.93227 3.48331 6.6865 3.53746 6.44489 3.57912C6.23662 3.61661 6.0325 3.50413 5.94502 3.31668C5.82422 3.05009 5.97002 2.7335 6.26577 2.66685C6.81563 2.54605 7.36549 2.42941 7.91534 2.32111C8.18611 2.26696 8.35273 2.35443 8.4777 2.6002C8.72347 3.09174 8.96924 3.58745 9.21084 4.07898C9.34414 4.34558 9.2525 4.62884 9.00673 4.74548C8.76512 4.85795 8.50269 4.75797 8.36939 4.49554C8.26525 4.29143 8.16528 4.08732 8.05281 3.86237C8.01532 3.92486 7.99032 3.96651 7.96533 4.00817C6.4324 6.85326 4.19548 8.94438 1.23792 10.2649C0.82969 10.4482 0.667233 10.3982 0.43396 10.0316C0.43396 9.95246 0.43396 9.86914 0.43396 9.78583Z" fill="#0F46BD"/>
</svg>
