<svg width="27" height="17" viewBox="0 0 27 17" fill="none" xmlns="http://www.w3.org/2000/svg">
<path d="M11.9318 11.3284C11.6812 10.052 10.4674 9.63698 9.59818 10.1773C9.47289 10.0285 9.36326 9.86407 9.23013 9.73095C8.59584 9.12015 7.66397 9.18279 7.11582 9.8719C6.91222 10.1303 6.72428 10.4122 6.50501 10.7255C5.9177 9.98937 5.33823 9.26893 4.75092 8.54067C5.12679 7.89071 5.49484 7.24859 5.86289 6.60646C6.45803 5.58063 7.04534 4.55479 7.63265 3.52896C7.71096 3.388 7.7736 3.29404 7.96937 3.36451C8.72113 3.64642 9.47289 3.90484 10.2638 4.18675C9.98972 4.46865 9.73913 4.75056 9.45723 5.00115C9.18315 5.23607 9.07352 5.50232 9.06569 5.86254C9.05785 6.59863 8.98738 7.3269 8.96388 8.06299C8.93256 9.01835 9.51204 9.4647 10.4439 9.21412C10.9764 9.06533 11.4149 8.79125 11.6968 8.31358C11.8691 8.01601 12.0727 7.72627 12.1745 7.4052C12.3703 6.77091 12.9341 6.67694 13.4353 6.48117C13.866 6.31672 14.2653 6.3872 14.6647 6.62212C16.5206 7.71061 18.3843 8.78342 20.2481 9.85624C20.6631 10.099 20.7806 10.3731 20.6474 10.749C20.4752 11.211 20.0445 11.3911 19.6059 11.1483C18.9795 10.7959 18.3765 10.4201 17.75 10.0833C17.6326 10.0207 17.4211 10.0442 17.3037 10.1068C17.2254 10.146 17.1862 10.3496 17.2097 10.467C17.2332 10.5688 17.3585 10.6628 17.4603 10.7255C18.2121 11.1718 18.9638 11.5947 19.7156 12.041C20.1932 12.3308 20.2481 12.8398 19.8565 13.2235C19.6059 13.4662 19.3397 13.4897 18.9716 13.2783C18.2277 12.8476 17.4838 12.4091 16.7399 11.9784C16.6616 11.9314 16.5911 11.8923 16.5128 11.8453C16.3092 11.7356 16.1291 11.7591 16.0116 11.9706C15.8941 12.182 15.9724 12.3543 16.1682 12.4639C16.4815 12.6518 16.7947 12.8319 17.1079 13.0121C17.4211 13.1922 17.7344 13.3723 18.0476 13.5602C18.447 13.803 18.5331 14.1788 18.2982 14.5626C18.0789 14.9306 17.7031 15.0246 17.3115 14.7975C16.6772 14.4373 16.0429 14.0614 15.4086 13.6933C15.3068 13.6385 15.1815 13.5524 15.0876 13.5837C14.9623 13.615 14.8213 13.7168 14.7665 13.8265C14.6725 14.0144 14.7978 14.1632 14.9623 14.2572C15.4713 14.5547 15.9803 14.8445 16.4815 15.1499C16.8808 15.3926 16.9591 15.7998 16.6929 16.1835C16.4736 16.4968 16.1291 16.5986 15.7923 16.4106C15.3382 16.16 14.8996 15.8938 14.422 15.6197C14.6334 15.1734 14.7195 14.727 14.4924 14.265C14.2732 13.8186 13.8895 13.5602 13.3961 13.4193C13.631 12.8946 13.6232 12.4013 13.2787 11.9392C12.9419 11.5242 12.4877 11.3206 11.9318 11.3284Z" fill="#0F46BD"/>
<path d="M19.0891 3.2862C20.0836 5.01681 21.0625 6.70826 22.057 8.42321C21.5715 8.67379 21.1016 8.92438 20.6318 9.14364C20.5535 9.18279 20.4047 9.12015 20.3185 9.07316C18.6271 8.09431 16.9121 7.14679 15.2442 6.12878C14.4063 5.61195 13.6154 5.61978 12.7383 5.98783C12.151 6.23058 11.7203 6.55948 11.5167 7.17811C11.4306 7.44436 11.2661 7.67928 11.1252 7.92987C10.9059 8.30574 10.5535 8.47802 10.1463 8.57199C9.81744 8.64247 9.67649 8.52501 9.69215 8.19611C9.72347 7.4052 9.76263 6.61429 9.80961 5.82338C9.81744 5.74507 9.86443 5.65893 9.91924 5.59629C10.4987 5.0403 11.0704 4.48431 11.6655 3.93616C12.339 3.30969 13.1377 3.12959 14.0304 3.33319C15.7062 3.70907 17.3898 3.80304 19.0891 3.2862Z" fill="#0F46BD"/>
<path d="M3.15341 9.16713C3.09859 9.14364 2.98113 9.11232 2.88716 9.0575C2.2372 8.68162 1.57942 8.31357 0.929459 7.92987C0.553581 7.7106 0.475273 7.42086 0.694536 7.03715C1.88482 4.97765 3.06727 2.92599 4.25755 0.866485C4.48464 0.482776 4.78221 0.404468 5.17375 0.631561C5.80805 0.991778 6.44234 1.35983 7.07664 1.72787C7.47601 1.9628 7.55431 2.25254 7.31939 2.65974C6.14477 4.71141 4.95449 6.75525 3.77987 8.80691C3.64675 9.02618 3.4823 9.16713 3.15341 9.16713Z" fill="#0F46BD"/>
<path d="M22.0021 0.514099C22.3623 0.514099 22.5111 0.686377 22.6442 0.91347C23.6466 2.65974 24.6567 4.39818 25.6591 6.14444C25.8314 6.44201 26.0036 6.73175 26.1681 7.02932C26.3795 7.41303 26.309 7.70277 25.941 7.92203C25.291 8.30574 24.6411 8.68162 23.9833 9.04967C23.6074 9.2611 23.3098 9.18279 23.0906 8.80691C21.9003 6.75525 20.7179 4.69574 19.5276 2.63625C19.3083 2.26037 19.3866 1.95497 19.7547 1.74353C20.4046 1.35983 21.0546 0.983947 21.7124 0.615899C21.8298 0.561084 21.9551 0.529761 22.0021 0.514099Z" fill="#0F46BD"/>
<path d="M8.74459 14.7427C8.34522 14.6957 8.1103 14.5704 7.96151 14.312C7.81273 14.0614 7.85188 13.8186 8.0085 13.5994C8.6193 12.7223 9.23793 11.8374 9.8644 10.9682C10.115 10.6237 10.4909 10.5688 10.8432 10.8116C11.2035 11.0544 11.2896 11.4381 11.0312 11.8061C10.4282 12.6832 9.81741 13.5602 9.19095 14.4138C9.07348 14.5704 8.85422 14.6644 8.74459 14.7427Z" fill="#0F46BD"/>
<path d="M10.7179 15.6745C10.3107 15.6354 10.0758 15.4944 9.92702 15.2282C9.78606 14.9776 9.84088 14.7348 9.99749 14.5156C10.4987 13.7951 10.9998 13.0747 11.5167 12.3621C11.7751 12.0097 12.1431 11.9627 12.4955 12.1977C12.8557 12.4482 12.9419 12.8241 12.6913 13.1922C12.1901 13.9283 11.6811 14.6565 11.1486 15.3691C11.039 15.5179 10.8276 15.6041 10.7179 15.6745Z" fill="#0F46BD"/>
<path d="M6.43451 12.2133C6.46583 12.1428 6.51282 11.9784 6.60679 11.8531C6.94351 11.3597 7.28024 10.8742 7.63262 10.3887C7.91453 9.99719 8.3139 9.92671 8.67412 10.193C9.03433 10.4592 9.08915 10.8507 8.80724 11.2423C8.45485 11.7435 8.10247 12.2525 7.73442 12.7458C7.52299 13.0277 7.26457 13.0982 6.95917 12.9807C6.64594 12.8633 6.43451 12.5892 6.43451 12.2133Z" fill="#0F46BD"/>
<path d="M13.9129 14.9149C13.9051 14.9463 13.9129 15.0324 13.8738 15.0951C13.6154 15.4788 13.3726 15.886 13.0672 16.2384C12.8401 16.4968 12.4251 16.4341 12.1432 16.1679C11.8691 15.9095 11.8456 15.6589 12.0649 15.3456C12.2685 15.0481 12.4956 14.7662 12.6835 14.4529C12.848 14.1867 13.0594 14.1005 13.3491 14.1945C13.678 14.2885 13.9051 14.5626 13.9129 14.9149Z" fill="#0F46BD"/>
</svg>
