<svg width="15" height="17" viewBox="0 0 15 17" fill="none" xmlns="http://www.w3.org/2000/svg">
<path d="M14.6427 9.92653C14.6427 12.0249 14.6427 14.1278 14.6427 16.2262C14.6427 16.585 14.5474 16.6804 14.1885 16.6804C10.3234 16.6804 6.45816 16.6804 2.59297 16.6804C2.22962 16.6804 2.13878 16.5896 2.13878 16.2307C2.13878 13.2149 2.13878 10.2036 2.14332 7.18774C2.14332 7.05148 2.10699 6.97426 1.98435 6.90614C0.680818 6.17034 0.00406876 4.69421 0.276585 3.18629C0.530934 1.76012 1.74363 0.592839 3.19705 0.374826C3.39236 0.343033 3.5922 0.333949 3.79205 0.333949C6.30828 0.329407 8.81997 0.333949 11.3362 0.329407C11.5088 0.329407 11.636 0.379368 11.7586 0.502C12.6625 1.40585 13.5663 2.30515 14.4747 3.20445C14.5928 3.32254 14.6427 3.44518 14.6427 3.61323C14.6427 5.71615 14.6427 7.81907 14.6427 9.92653ZM11.1364 0.987988C9.35138 0.987988 7.58911 0.987988 5.80867 0.987988C7.2848 2.11893 7.57548 3.88575 7.00774 5.16203C6.19019 6.98789 4.72769 7.61468 2.79282 7.28766C2.79282 10.199 2.79282 13.1104 2.79282 16.0264C6.53538 16.0264 10.2643 16.0264 13.9887 16.0264C13.9887 11.9522 13.9887 7.89174 13.9887 3.81762C13.916 3.81762 13.8524 3.81762 13.7934 3.81762C13.3347 3.81762 12.8759 3.82216 12.4126 3.81762C11.6859 3.80399 11.15 3.2635 11.1409 2.54133C11.1364 2.16889 11.1409 1.79191 11.1409 1.41947C11.1364 1.27413 11.1364 1.13333 11.1364 0.987988ZM4.06002 4.50345C4.06002 4.09013 4.06002 3.67682 4.06002 3.25896C4.06002 3.0364 3.93285 2.8956 3.74208 2.89106C3.55587 2.89106 3.41961 3.0364 3.41961 3.25442C3.41507 4.08105 3.41507 4.91222 3.41961 5.73886C3.41961 5.96141 3.55132 6.09767 3.74663 6.09313C3.94193 6.08859 4.05548 5.95687 4.06002 5.72523C4.06002 5.321 4.06002 4.91222 4.06002 4.50345ZM11.7768 1.44672C11.7768 1.81916 11.7722 2.15527 11.7768 2.49591C11.7813 2.91377 12.0357 3.17266 12.4535 3.1772C12.7578 3.18174 13.0667 3.1772 13.371 3.1772C13.4119 3.1772 13.4528 3.16812 13.4664 3.16812C12.9168 2.60946 12.3581 2.04172 11.7768 1.44672ZM4.05548 1.93725C4.05548 1.76012 3.92376 1.62386 3.74663 1.62386C3.56495 1.61932 3.41961 1.76012 3.41961 1.93725C3.41961 2.11439 3.56495 2.25519 3.74663 2.25519C3.92376 2.24611 4.05548 2.10985 4.05548 1.93725Z" fill="#0F46BD"/>
<path d="M8.37935 10.2717C6.87597 10.2717 5.37259 10.2717 3.86921 10.2717C3.51948 10.2717 3.41956 10.1718 3.41956 9.82658C3.41956 9.46323 3.41956 9.09987 3.41956 8.73652C3.41956 8.45946 3.53765 8.34137 3.8147 8.34137C6.86689 8.34137 9.91907 8.34137 12.9713 8.34137C13.2392 8.34137 13.3573 8.45946 13.3573 8.72743C13.3573 9.09987 13.3573 9.47686 13.3573 9.84929C13.3573 10.1627 13.2529 10.2717 12.9395 10.2717C11.4179 10.2717 9.89636 10.2717 8.37935 10.2717Z" fill="#0F46BD"/>
<path d="M8.38844 15.395C6.88051 15.395 5.36805 15.395 3.86012 15.395C3.51039 15.395 3.41956 15.2996 3.41956 14.9499C3.41956 14.5911 3.41956 14.2368 3.41956 13.878C3.41956 13.5919 3.5331 13.4783 3.82379 13.4783C6.86689 13.4783 9.90999 13.4783 12.9531 13.4783C13.2483 13.4783 13.3573 13.5828 13.3573 13.8735C13.3573 14.2459 13.3573 14.6229 13.3573 14.9953C13.3573 15.286 13.2529 15.3905 12.9531 15.3905C11.4315 15.3996 9.90999 15.395 8.38844 15.395Z" fill="#0F46BD"/>
<path d="M8.39757 10.9167C9.90095 10.9167 11.4043 10.9167 12.9123 10.9167C13.2665 10.9167 13.3574 11.0075 13.3574 11.3572C13.3574 11.7206 13.3574 12.0839 13.3574 12.4473C13.3574 12.7198 13.2438 12.8379 12.9804 12.8379C9.91912 12.8379 6.8624 12.8379 3.80113 12.8379C3.54678 12.8379 3.42415 12.7198 3.41961 12.4655C3.41506 12.0794 3.41506 11.6933 3.41961 11.3073C3.41961 11.0302 3.53315 10.9212 3.8193 10.9212C5.34539 10.9121 6.87148 10.9167 8.39757 10.9167ZM12.7079 11.5662C9.81466 11.5662 6.93961 11.5662 4.07364 11.5662C4.07364 11.7842 4.07364 11.984 4.07364 12.1793C6.96232 12.1793 9.83282 12.1793 12.7079 12.1793C12.7079 11.9659 12.7079 11.7705 12.7079 11.5662Z" fill="#0F46BD"/>
<path d="M10.6277 7.70548C9.88279 7.70548 9.14245 7.70548 8.39757 7.70548C7.98426 7.70548 7.90704 7.62827 7.90704 7.20587C7.90704 6.86068 7.90704 6.51549 7.90704 6.16576C7.90704 5.90233 8.02513 5.78424 8.29311 5.78424C9.85554 5.78424 11.4134 5.78424 12.9758 5.78424C13.2347 5.78424 13.3528 5.90233 13.3528 6.15668C13.3528 6.54274 13.3528 6.92881 13.3528 7.31487C13.3528 7.59647 13.2438 7.70548 12.9577 7.70548C12.1856 7.70548 11.4089 7.70548 10.6277 7.70548ZM8.55654 7.05598C9.95092 7.05598 11.3271 7.05598 12.7033 7.05598C12.7033 6.84251 12.7033 6.64267 12.7033 6.43828C11.3135 6.43828 9.93729 6.43828 8.55654 6.43828C8.55654 6.65175 8.55654 6.84705 8.55654 7.05598Z" fill="#0F46BD"/>
</svg>
