<svg width="17" height="17" viewBox="0 0 17 17" fill="none" xmlns="http://www.w3.org/2000/svg">
<path d="M16.4298 8.43234C16.3853 8.6995 16.3556 8.96666 16.3037 9.22641C16.0439 10.4361 15.5096 11.4973 14.5597 12.3062C13.4169 13.2635 12.1107 13.5604 10.671 13.1893C9.52818 12.8925 8.56343 12.2765 7.70257 11.4899C6.56714 10.4509 5.48365 9.34514 4.53374 8.12807C3.8881 7.29691 3.62836 6.33958 3.87326 5.2932C4.0291 4.59561 4.43727 4.06128 5.05322 3.71991C5.2907 3.58633 5.58754 3.56407 5.86213 3.49728C5.96602 3.46759 6.07734 3.46759 6.18124 3.43791C6.37419 3.38596 6.53003 3.44533 6.65619 3.59375C7.09404 4.12808 7.34636 4.74403 7.41315 5.42678C7.44283 5.76073 7.34636 5.87205 7.01983 5.95368C6.76009 6.01305 6.50777 6.07984 6.24803 6.14663C5.84729 6.25052 5.83986 6.47316 6.00313 6.79969C6.04024 6.8739 6.09218 6.94069 6.15155 7.00006C7.26473 8.11323 8.37048 9.22641 9.49107 10.3322C9.59497 10.4361 9.73597 10.5028 9.87697 10.5548C10.0922 10.6364 10.2332 10.5696 10.3074 10.347C10.4039 10.0353 10.4781 9.7162 10.5597 9.39709C10.6117 9.17446 10.6933 9.07056 10.9234 9.0854C11.1979 9.10025 11.4725 9.14477 11.7323 9.21898C12.1404 9.3303 12.5189 9.51583 12.8529 9.78299C13.0384 9.93141 13.12 10.1021 13.0532 10.3396C13.0013 10.5177 12.979 10.7032 12.9493 10.8887C12.8677 11.4602 12.5337 11.8609 12.0959 12.1949C12.0588 12.2246 12.0217 12.2468 11.9623 12.2913C12.2517 12.3136 12.5041 12.2617 12.749 12.1874C13.543 11.9574 14.1367 11.4528 14.6042 10.7848C15.287 9.79041 15.5467 8.68466 15.4354 7.49728C15.2128 5.16704 14.1144 3.34885 12.1404 2.09468C10.7304 1.19672 9.17196 0.855348 7.52447 1.10767C4.6599 1.55294 2.7304 3.16333 1.77307 5.87947C0.815745 8.59561 1.78792 11.7496 4.04395 13.5233C5.2907 14.5028 6.70814 15.0297 8.29627 15.0594C8.37048 15.0594 8.44469 15.0668 8.51148 15.0743C8.71927 15.1114 8.87512 15.2672 8.91222 15.4824C8.94933 15.6754 8.84543 15.8832 8.66732 15.9871C8.63022 16.0093 8.58569 16.0316 8.54858 16.0539C8.34821 16.0539 8.15526 16.0539 7.95489 16.0539C7.91779 16.0464 7.87326 16.0316 7.83615 16.0316C6.58198 15.9425 5.41686 15.5863 4.34821 14.9333C2.27771 13.6643 1.00127 11.8312 0.548584 9.4342C0.489215 9.13735 0.466951 8.82566 0.422424 8.52882C0.422424 8.21713 0.422424 7.90544 0.422424 7.59375C0.429845 7.54922 0.444688 7.5047 0.452109 7.46017C0.541163 6.21342 0.897378 5.0483 1.55044 3.98707C2.82688 1.90173 4.6599 0.625292 7.04951 0.180023C7.34636 0.120654 7.65805 0.0983904 7.96231 0.0538635C8.274 0.0538635 8.58569 0.0538635 8.89738 0.0538635C9.0087 0.0687058 9.12001 0.076127 9.23875 0.0909693C10.953 0.283919 12.467 0.93698 13.7582 2.08726C15.1311 3.31917 15.992 4.84793 16.3111 6.67353C16.3631 6.9778 16.3927 7.28206 16.4373 7.57891C16.4298 7.86833 16.4298 8.15034 16.4298 8.43234Z" fill="#0F46BD"/>
<path d="M14.2258 8.12808C13.966 8.12808 13.6989 8.12808 13.4243 8.12808C13.3946 6.80711 12.9345 5.66425 12.0068 4.72919C11.0718 3.79412 9.92891 3.33401 8.60052 3.30433C8.60052 3.02975 8.60052 2.77001 8.60052 2.50284C11.6209 2.45832 14.2629 5.02604 14.2258 8.12808Z" fill="#0F46BD"/>
<path d="M8.60052 3.91286C11.0198 3.90544 12.8603 5.95368 12.8083 8.1355C12.5486 8.1355 12.2963 8.1355 12.0365 8.1355C11.8213 6.065 10.6859 4.92214 8.60052 4.69208C8.60052 4.44718 8.60052 4.18744 8.60052 3.91286Z" fill="#0F46BD"/>
</svg>
