<svg width="26" height="26" viewBox="0 0 26 26" fill="none" xmlns="http://www.w3.org/2000/svg">
<path d="M22.8666 25.0353C16.5515 25.0353 10.2364 25.0353 3.92126 25.0353C3.87569 25.0223 3.83012 25.0027 3.78455 24.9897C2.36528 24.7228 1.44731 23.896 1.01762 22.5223C0.965535 22.353 0.932983 22.1772 0.893921 22.0079C0.893921 15.6928 0.893921 9.37773 0.893921 3.06262C0.906942 3.00403 0.926473 2.93892 0.939494 2.88033C1.16085 1.72799 1.78585 0.881632 2.83402 0.38033C3.17257 0.21757 3.55668 0.145955 3.92126 0.0352783C10.2364 0.0352783 16.5515 0.0352783 22.8666 0.0352783C22.9121 0.0482992 22.9577 0.0678304 23.0033 0.0743408C24.4226 0.341268 25.3405 1.16809 25.7702 2.54179C25.8223 2.71106 25.8549 2.88684 25.8939 3.06262C25.8939 9.37773 25.8939 15.6928 25.8939 22.0079C25.8809 22.073 25.8614 22.1316 25.8483 22.1967C25.5684 23.5639 24.7676 24.4754 23.433 24.8986C23.2442 24.9572 23.0554 24.9897 22.8666 25.0353ZM13.8562 15.9858C13.9473 16.0444 14.0189 16.09 14.0905 16.142C15.2299 16.9103 16.3627 17.6915 17.502 18.4532C18.0293 18.8048 18.6283 18.5835 18.7585 17.991C19.5658 14.4363 20.3731 10.8751 21.1739 7.31392C21.265 6.91028 21.0437 6.54569 20.6335 6.48059C20.4512 6.45455 20.2429 6.48059 20.0671 6.54569C15.3731 8.23189 10.6791 9.9246 5.99158 11.6108C5.7572 11.6954 5.58793 11.8256 5.58142 12.0926C5.57491 12.3269 5.73116 12.4897 6.02413 12.5678C7.11137 12.8673 8.19861 13.1668 9.29236 13.4532C9.50069 13.5053 9.61137 13.603 9.68298 13.8178C10.0801 15.0223 10.4903 16.2202 10.9004 17.4181C11.0827 17.9519 11.597 18.0822 12.0202 17.7045C12.1374 17.6004 12.2481 17.4897 12.3588 17.3855C12.8601 16.9233 13.3549 16.4545 13.8562 15.9858Z" fill="#0F46BD"/>
<path d="M11.3106 16.7019C11.278 16.6368 11.239 16.5717 11.2194 16.5066C10.8939 15.5431 10.5749 14.5861 10.2559 13.6225C10.1582 13.3361 10.1973 13.2319 10.4577 13.0822C13.0033 11.6238 15.5424 10.1655 18.0879 8.70715C18.1465 8.6746 18.2051 8.62903 18.2637 8.62903C18.3288 8.62903 18.4069 8.66809 18.446 8.71366C18.472 8.74622 18.4395 8.83736 18.4134 8.88293C18.3809 8.93502 18.3223 8.96757 18.2702 9.01314C16.1543 10.7449 14.045 12.4702 11.9226 14.1954C11.7468 14.3387 11.6556 14.4949 11.6296 14.7228C11.5645 15.3738 11.4733 16.0249 11.3952 16.6759C11.3692 16.6889 11.3431 16.6954 11.3106 16.7019Z" fill="#0F46BD"/>
</svg>
